<svg xmlns="http://www.w3.org/2000/svg" xmlns:xlink="http://www.w3.org/1999/xlink" width="181" height="163" version="1.1"><rect id="backgroundrect" width="100%" height="100%" x="0" y="0" fill="none" stroke="none"/>
    <!-- Generator: Sketch 63.1 (92452) - https://sketch.com -->
    <title>element-camara</title>
    <desc>Created with Sketch.</desc>
    <defs>
        <path d="M16.3915,0 C8.4275,0 1.9485,6.478 1.9485,14.44 L1.9485,14.44 L1.9485,61.662 C1.9485,69.624 8.4275,76.103 16.3915,76.103 L16.3915,76.103 L135.8575,76.103 C143.8215,76.103 150.3015,69.624 150.3015,61.662 L150.3015,61.662 L150.3015,14.44 C150.3015,6.478 143.8215,0 135.8575,0 L135.8575,0 L16.3915,0 Z M4.1045,61.662 L4.1045,14.44 C4.1045,7.667 9.6175,2.156 16.3915,2.156 L16.3915,2.156 L135.8575,2.156 C142.6315,2.156 148.1455,7.667 148.1455,14.44 L148.1455,14.44 L148.1455,61.662 C148.1455,68.436 142.6315,73.947 135.8575,73.947 L135.8575,73.947 L16.3915,73.947 C9.6175,73.947 4.1045,68.436 4.1045,61.662 L4.1045,61.662 Z" id="path-1"/>
        <linearGradient x1="-0.000337101373%" y1="49.9997359%" x2="100.000062%" y2="49.9997359%" id="linearGradient-3">
            <stop stop-color="#7C72FF" offset="0%"/>
            <stop stop-color="#6D64F4" offset="100%"/>
        </linearGradient>
        <path d="M52.2705,73.947 C51.6745,73.947 51.1915,74.429 51.1915,75.025 L51.1915,75.025 L51.1915,75.48 C51.1915,82.087 56.5685,87.461 63.1735,87.461 L63.1735,87.461 L89.0725,87.461 C95.6805,87.461 101.0575,82.087 101.0575,75.48 L101.0575,75.48 L101.0575,75.025 C101.0575,74.429 100.5745,73.947 99.9795,73.947 L99.9795,73.947 L52.2705,73.947 Z M53.3675,76.103 L98.8815,76.103 C98.5595,81.232 94.2825,85.306 89.0725,85.306 L89.0725,85.306 L63.1735,85.306 C57.9665,85.306 53.6895,81.232 53.3675,76.103 L53.3675,76.103 Z" id="path-4"/>
        <linearGradient x1="0.00139935026%" y1="50.0010826%" x2="99.9997951%" y2="50.0010826%" id="linearGradient-6">
            <stop stop-color="#7C72FF" offset="0%"/>
            <stop stop-color="#6D64F4" offset="100%"/>
        </linearGradient>
        <path d="M75.0465,86.384 L75.0465,160.559 C75.0465,161.154 75.5285,161.636 76.1245,161.636 L76.1245,161.636 C76.7205,161.636 77.2025,161.154 77.2025,160.559 L77.2025,160.559 L77.2025,86.384 C77.2025,85.787 76.7205,85.306 76.1245,85.306 L76.1245,85.306 C75.5285,85.306 75.0465,85.787 75.0465,86.384" id="path-7"/>
        <linearGradient x1="-0.0141929499%" y1="49.9999995%" x2="99.9950788%" y2="49.9999995%" id="linearGradient-9">
            <stop stop-color="#7C72FF" offset="0%"/>
            <stop stop-color="#6D64F4" offset="100%"/>
        </linearGradient>
        <path d="M75.3625,85.621 L0.3165,160.672 C-0.1055,161.093 -0.1055,161.775 0.3165,162.197 L0.3165,162.197 C0.5265,162.407 0.8025,162.512 1.0785,162.512 L1.0785,162.512 C1.3545,162.512 1.6305,162.407 1.8405,162.197 L1.8405,162.197 L76.8865,87.146 C77.3075,86.724 77.3075,86.043 76.8865,85.621 L76.8865,85.621 C76.6765,85.411 76.4005,85.306 76.1245,85.306 L76.1245,85.306 C75.8485,85.306 75.5725,85.411 75.3625,85.621" id="path-10"/>
        <linearGradient x1="0.000193906266%" y1="49.9995792%" x2="100.000873%" y2="49.9995792%" id="linearGradient-12">
            <stop stop-color="#7C72FF" offset="0%"/>
            <stop stop-color="#6D64F4" offset="100%"/>
        </linearGradient>
        <path d="M75.3625,85.621 C74.9415,86.043 74.9415,86.724 75.3625,87.146 L75.3625,87.146 L150.4085,162.197 C150.6195,162.407 150.8955,162.512 151.1715,162.512 L151.1715,162.512 C151.4465,162.512 151.7225,162.407 151.9335,162.197 L151.9335,162.197 C152.3545,161.775 152.3545,161.093 151.9335,160.672 L151.9335,160.672 L76.8865,85.621 C76.6765,85.411 76.4005,85.306 76.1245,85.306 L76.1245,85.306 C75.8485,85.306 75.5725,85.411 75.3625,85.621" id="path-13"/>
        <linearGradient x1="-0.000423690943%" y1="49.9995792%" x2="100.000257%" y2="49.9995792%" id="linearGradient-15">
            <stop stop-color="#7C72FF" offset="0%"/>
            <stop stop-color="#6D64F4" offset="100%"/>
        </linearGradient>
        <path d="M16.7415,54.127 C16.1445,54.127 15.6635,54.609 15.6635,55.205 L15.6635,55.205 L15.6635,63.22 C15.6635,63.815 16.1445,64.298 16.7415,64.298 L16.7415,64.298 L56.5005,64.298 C57.0965,64.298 57.5795,63.815 57.5795,63.22 L57.5795,63.22 L57.5795,55.205 C57.5795,54.609 57.0965,54.127 56.5005,54.127 L56.5005,54.127 L16.7415,54.127 Z M17.8195,62.141 L55.4225,62.141 L55.4225,56.283 L17.8195,56.283 L17.8195,62.141 Z" id="path-16"/>
        <linearGradient x1="-0.000237140949%" y1="49.9965539%" x2="99.9985624%" y2="49.9965539%" id="linearGradient-18">
            <stop stop-color="#7C72FF" offset="0%"/>
            <stop stop-color="#6D64F4" offset="100%"/>
        </linearGradient>
        <path d="M63.1825,54.127 C62.5865,54.127 62.1045,54.609 62.1045,55.205 L62.1045,55.205 L62.1045,63.22 C62.1045,63.815 62.5865,64.298 63.1825,64.298 L63.1825,64.298 L71.3695,64.298 C71.9655,64.298 72.4475,63.815 72.4475,63.22 L72.4475,63.22 L72.4475,55.205 C72.4475,54.609 71.9655,54.127 71.3695,54.127 L71.3695,54.127 L63.1825,54.127 Z M64.2605,62.141 L70.2915,62.141 L70.2915,56.283 L64.2605,56.283 L64.2605,62.141 Z" id="path-19"/>
        <linearGradient x1="-0.00193850914%" y1="49.9965539%" x2="100.004825%" y2="49.9965539%" id="linearGradient-21">
            <stop stop-color="#7C72FF" offset="0%"/>
            <stop stop-color="#6D64F4" offset="100%"/>
        </linearGradient>
        <path d="M16.7415,42.097 C16.1445,42.097 15.6635,42.578 15.6635,43.175 L15.6635,43.175 C15.6635,43.77 16.1445,44.253 16.7415,44.253 L16.7415,44.253 L56.5005,44.253 C57.0965,44.253 57.5795,43.77 57.5795,43.175 L57.5795,43.175 C57.5795,42.578 57.0965,42.097 56.5005,42.097 L56.5005,42.097 L16.7415,42.097 Z" id="path-22"/>
        <linearGradient x1="-0.000237140949%" y1="49.9813404%" x2="99.9985624%" y2="49.9813404%" id="linearGradient-24">
            <stop stop-color="#7C72FF" offset="0%"/>
            <stop stop-color="#6D64F4" offset="100%"/>
        </linearGradient>
        <path d="M16.7415,31.182 C16.1445,31.182 15.6635,31.665 15.6635,32.26 L15.6635,32.26 C15.6635,32.856 16.1445,33.339 16.7415,33.339 L16.7415,33.339 L71.3695,33.339 C71.9655,33.339 72.4475,32.856 72.4475,32.26 L72.4475,32.26 C72.4475,31.665 71.9655,31.182 71.3695,31.182 L71.3695,31.182 L16.7415,31.182 Z" id="path-25"/>
        <linearGradient x1="-0.00017504931%" y1="49.978994%" x2="100.000874%" y2="49.978994%" id="linearGradient-27">
            <stop stop-color="#7C72FF" offset="0%"/>
            <stop stop-color="#6D64F4" offset="100%"/>
        </linearGradient>
        <path d="M171.0335,13.902 L152.9645,24.335 C152.6325,24.529 152.4265,24.884 152.4265,25.269 L152.4265,25.269 L152.4265,50.834 C152.4265,51.219 152.6325,51.574 152.9645,51.767 L152.9645,51.767 L171.0335,62.2 C171.1985,62.295 171.3865,62.344 171.5725,62.344 L171.5725,62.344 C171.7565,62.344 171.9445,62.295 172.1115,62.2 L172.1115,62.2 C172.4435,62.007 172.6505,61.651 172.6505,61.266 L172.6505,61.266 L172.6505,14.836 C172.6505,14.451 172.4435,14.096 172.1115,13.902 L172.1115,13.902 C171.9445,13.807 171.7585,13.759 171.5715,13.759 L171.5715,13.759 C171.3855,13.759 171.1995,13.807 171.0335,13.902 L171.0335,13.902 Z M154.5815,50.211 L154.5815,25.891 L170.4945,16.705 L170.4945,59.398 L154.5815,50.211 Z" id="path-28"/>
        <linearGradient x1="-0.00197933149%" y1="49.999916%" x2="99.9985156%" y2="49.999916%" id="linearGradient-30">
            <stop stop-color="#7C72FF" offset="0%"/>
            <stop stop-color="#6D64F4" offset="100%"/>
        </linearGradient>
        <path d="M178.5795,6.579 L171.0335,10.937 C170.7005,11.128 170.4945,11.485 170.4945,11.87 L170.4945,11.87 L170.4945,64.23 C170.4945,64.615 170.7005,64.972 171.0335,65.164 L171.0335,65.164 L178.5795,69.523 C178.7465,69.619 178.9345,69.667 179.1195,69.667 L179.1195,69.667 C179.3045,69.667 179.4925,69.619 179.6585,69.523 L179.6585,69.523 C179.9905,69.33 180.1975,68.975 180.1975,68.589 L180.1975,68.589 L180.1975,7.513 C180.1975,7.128 179.9905,6.772 179.6585,6.579 L179.6585,6.579 C179.4925,6.483 179.3055,6.435 179.1195,6.435 L179.1195,6.435 C178.9325,6.435 178.7465,6.483 178.5795,6.579 L178.5795,6.579 Z M172.6505,63.608 L172.6505,12.493 L178.0405,9.382 L178.0405,66.721 L172.6505,63.608 Z" id="path-31"/>
        <linearGradient x1="-0.00624033804%" y1="50.0005091%" x2="100.000975%" y2="50.0005091%" id="linearGradient-33">
            <stop stop-color="#7C72FF" offset="0%"/>
            <stop stop-color="#6D64F4" offset="100%"/>
        </linearGradient>
    </defs>
    
<g class="currentLayer" style=""><title>Layer 1</title><g id="GIFOS" stroke="none" stroke-width="1" fill="none" fill-rule="evenodd" class="">
        <g id="00-UI-Kit">
            <g id="element-camara">
                <g id="svg_1">
                    <mask id="mask-2" fill="white">
                        <use xlink:href="#path-1" id="svg_2"/>
                    </mask>
                    <g id="Clip-4"/>
                    <path d="M16.3914794921875,0 C8.427490234375,0 1.948486328125,6.47802734375 1.948486328125,14.43994140625 L1.948486328125,14.43994140625 L1.948486328125,61.662109375 C1.948486328125,69.6240234375 8.427490234375,76.10302734375 16.3914794921875,76.10302734375 L16.3914794921875,76.10302734375 L135.85748291015625,76.10302734375 C143.82147216796875,76.10302734375 150.301513671875,69.6240234375 150.301513671875,61.662109375 L150.301513671875,61.662109375 L150.301513671875,14.43994140625 C150.301513671875,6.47802734375 143.82147216796875,0 135.85748291015625,0 L135.85748291015625,0 L16.3914794921875,0 zM4.1044921875,61.662109375 L4.1044921875,14.43994140625 C4.1044921875,7.6669921875 9.61749267578125,2.156005859375 16.3914794921875,2.156005859375 L16.3914794921875,2.156005859375 L135.85748291015625,2.156005859375 C142.6314697265625,2.156005859375 148.1455078125,7.6669921875 148.1455078125,14.43994140625 L148.1455078125,14.43994140625 L148.1455078125,61.662109375 C148.1455078125,68.43603515625 142.6314697265625,73.947021484375 135.85748291015625,73.947021484375 L135.85748291015625,73.947021484375 L16.3914794921875,73.947021484375 C9.61749267578125,73.947021484375 4.1044921875,68.43603515625 4.1044921875,61.662109375 L4.1044921875,61.662109375 z" id="Fill-3" fill="url(#linearGradient-3)"/>
                    <path d="M52.27032470703125,75.024658203125 L52.27032470703125,75.479736328125 C52.27032470703125,81.502685546875 57.15130615234375,86.3837890625 63.17327880859375,86.3837890625 L89.07330322265625,86.3837890625 C95.0982666015625,86.3837890625 99.97930908203125,81.502685546875 99.97930908203125,75.479736328125 L99.97930908203125,75.024658203125 L52.27032470703125,75.024658203125 z" id="Fill-21" fill="#FFFFFF"/>
                    <mask id="mask-5" fill="white">
                        <use xlink:href="#path-4" id="svg_3"/>
                    </mask>
                    <g id="Clip-24"/>
                    <path d="M52.2705078125,73.947021484375 C51.67449951171875,73.947021484375 51.1915283203125,74.428955078125 51.1915283203125,75.02490234375 L51.1915283203125,75.02490234375 L51.1915283203125,75.47998046875 C51.1915283203125,82.0869140625 56.5684814453125,87.4609375 63.17352294921875,87.4609375 L63.17352294921875,87.4609375 L89.072509765625,87.4609375 C95.68048095703125,87.4609375 101.0574951171875,82.0869140625 101.0574951171875,75.47998046875 L101.0574951171875,75.47998046875 L101.0574951171875,75.02490234375 C101.0574951171875,74.428955078125 100.57452392578125,73.947021484375 99.9794921875,73.947021484375 L99.9794921875,73.947021484375 L52.2705078125,73.947021484375 zM53.36749267578125,76.10302734375 L98.8814697265625,76.10302734375 C98.55950927734375,81.23193359375 94.282470703125,85.305908203125 89.072509765625,85.305908203125 L89.072509765625,85.305908203125 L63.17352294921875,85.305908203125 C57.96649169921875,85.305908203125 53.68951416015625,81.23193359375 53.36749267578125,76.10302734375 L53.36749267578125,76.10302734375 z" id="Fill-23" fill="url(#linearGradient-6)"/>
                    <mask id="mask-8" fill="white">
                        <use xlink:href="#path-7" id="svg_4"/>
                    </mask>
                    <g id="Clip-27"/>
                    <path d="M75.0465087890625,86.384033203125 L75.0465087890625,160.55908203125 C75.0465087890625,161.154052734375 75.52850341796875,161.635986328125 76.12451171875,161.635986328125 L76.12451171875,161.635986328125 C76.72052001953125,161.635986328125 77.2025146484375,161.154052734375 77.2025146484375,160.55908203125 L77.2025146484375,160.55908203125 L77.2025146484375,86.384033203125 C77.2025146484375,85.787109375 76.72052001953125,85.305908203125 76.12451171875,85.305908203125 L76.12451171875,85.305908203125 C75.52850341796875,85.305908203125 75.0465087890625,85.787109375 75.0465087890625,86.384033203125 " id="Fill-26" fill="url(#linearGradient-9)"/>
                    <mask id="mask-11" fill="white">
                        <use xlink:href="#path-10" id="svg_5"/>
                    </mask>
                    <g id="Clip-30"/>
                    <path d="M75.36248779296875,85.62109375 L0.3165283203125,160.671875 C-0.10546875,161.093017578125 -0.10546875,161.77490234375 0.3165283203125,162.197021484375 L0.3165283203125,162.197021484375 C0.5264892578125,162.406982421875 0.802490234375,162.511962890625 1.0784912109375,162.511962890625 L1.0784912109375,162.511962890625 C1.3544921875,162.511962890625 1.6304931640625,162.406982421875 1.8404541015625,162.197021484375 L1.8404541015625,162.197021484375 L76.886474609375,87.14599609375 C77.3074951171875,86.72412109375 77.3074951171875,86.04296875 76.886474609375,85.62109375 L76.886474609375,85.62109375 C76.676513671875,85.410888671875 76.4005126953125,85.305908203125 76.12451171875,85.305908203125 L76.12451171875,85.305908203125 C75.8485107421875,85.305908203125 75.572509765625,85.410888671875 75.36248779296875,85.62109375 " id="Fill-29" fill="url(#linearGradient-12)"/>
                    <mask id="mask-14" fill="white">
                        <use xlink:href="#path-13" id="svg_6"/>
                    </mask>
                    <g id="Clip-33"/>
                    <path d="M75.36248779296875,85.62109375 C74.94146728515625,86.04296875 74.94146728515625,86.72412109375 75.36248779296875,87.14599609375 L75.36248779296875,87.14599609375 L150.40850830078125,162.197021484375 C150.6195068359375,162.406982421875 150.8955078125,162.511962890625 151.1715087890625,162.511962890625 L151.1715087890625,162.511962890625 C151.446533203125,162.511962890625 151.7225341796875,162.406982421875 151.9334716796875,162.197021484375 L151.9334716796875,162.197021484375 C152.3544921875,161.77490234375 152.3544921875,161.093017578125 151.9334716796875,160.671875 L151.9334716796875,160.671875 L76.886474609375,85.62109375 C76.676513671875,85.410888671875 76.4005126953125,85.305908203125 76.12451171875,85.305908203125 L76.12451171875,85.305908203125 C75.8485107421875,85.305908203125 75.572509765625,85.410888671875 75.36248779296875,85.62109375 " id="Fill-32" fill="url(#linearGradient-15)"/>
                    <mask id="mask-17" fill="white">
                        <use xlink:href="#path-16" id="svg_7"/>
                    </mask>
                    <g id="Clip-36"/>
                    <path d="M16.74151611328125,54.126953125 C16.14453125,54.126953125 15.66351318359375,54.60888671875 15.66351318359375,55.205078125 L15.66351318359375,55.205078125 L15.66351318359375,63.219970703125 C15.66351318359375,63.81494140625 16.14453125,64.298095703125 16.74151611328125,64.298095703125 L16.74151611328125,64.298095703125 L56.50048828125,64.298095703125 C57.09649658203125,64.298095703125 57.5794677734375,63.81494140625 57.5794677734375,63.219970703125 L57.5794677734375,63.219970703125 L57.5794677734375,55.205078125 C57.5794677734375,54.60888671875 57.09649658203125,54.126953125 56.50048828125,54.126953125 L56.50048828125,54.126953125 L16.74151611328125,54.126953125 zM17.81951904296875,62.14111328125 L55.4224853515625,62.14111328125 L55.4224853515625,56.282958984375 L17.81951904296875,56.282958984375 L17.81951904296875,62.14111328125 z" id="Fill-35" fill="url(#linearGradient-18)"/>
                    <mask id="mask-20" fill="white">
                        <use xlink:href="#path-19" id="svg_8"/>
                    </mask>
                    <g id="Clip-39"/>
                    <path d="M63.1824951171875,54.126953125 C62.58648681640625,54.126953125 62.1044921875,54.60888671875 62.1044921875,55.205078125 L62.1044921875,55.205078125 L62.1044921875,63.219970703125 C62.1044921875,63.81494140625 62.58648681640625,64.298095703125 63.1824951171875,64.298095703125 L63.1824951171875,64.298095703125 L71.3695068359375,64.298095703125 C71.96551513671875,64.298095703125 72.447509765625,63.81494140625 72.447509765625,63.219970703125 L72.447509765625,63.219970703125 L72.447509765625,55.205078125 C72.447509765625,54.60888671875 71.96551513671875,54.126953125 71.3695068359375,54.126953125 L71.3695068359375,54.126953125 L63.1824951171875,54.126953125 zM64.260498046875,62.14111328125 L70.29150390625,62.14111328125 L70.29150390625,56.282958984375 L64.260498046875,56.282958984375 L64.260498046875,62.14111328125 z" id="Fill-38" fill="url(#linearGradient-21)"/>
                    <mask id="mask-23" fill="white">
                        <use xlink:href="#path-22" id="svg_9"/>
                    </mask>
                    <g id="Clip-42"/>
                    <path d="M16.74151611328125,42.096923828125 C16.14453125,42.096923828125 15.66351318359375,42.577880859375 15.66351318359375,43.175048828125 L15.66351318359375,43.175048828125 C15.66351318359375,43.77001953125 16.14453125,44.2529296875 16.74151611328125,44.2529296875 L16.74151611328125,44.2529296875 L56.50048828125,44.2529296875 C57.09649658203125,44.2529296875 57.5794677734375,43.77001953125 57.5794677734375,43.175048828125 L57.5794677734375,43.175048828125 C57.5794677734375,42.577880859375 57.09649658203125,42.096923828125 56.50048828125,42.096923828125 L56.50048828125,42.096923828125 L16.74151611328125,42.096923828125 z" id="Fill-41" fill="url(#linearGradient-24)"/>
                    <mask id="mask-26" fill="white">
                        <use xlink:href="#path-25" id="svg_10"/>
                    </mask>
                    <g id="Clip-45"/>
                    <path d="M16.74151611328125,31.181884765625 C16.14453125,31.181884765625 15.66351318359375,31.6650390625 15.66351318359375,32.260009765625 L15.66351318359375,32.260009765625 C15.66351318359375,32.85595703125 16.14453125,33.339111328125 16.74151611328125,33.339111328125 L16.74151611328125,33.339111328125 L71.3695068359375,33.339111328125 C71.96551513671875,33.339111328125 72.447509765625,32.85595703125 72.447509765625,32.260009765625 L72.447509765625,32.260009765625 C72.447509765625,31.6650390625 71.96551513671875,31.181884765625 71.3695068359375,31.181884765625 L71.3695068359375,31.181884765625 L16.74151611328125,31.181884765625 z" id="Fill-44" fill="url(#linearGradient-27)"/>
                    <polygon id="Fill-47" fill="#FFFFFF" points="153.50421142578125,25.269287109375 153.50421142578125,50.833251953125 171.57220458984375,61.265380859375 171.57220458984375,14.836181640625 "/>
                    <mask id="mask-29" fill="white">
                        <use xlink:href="#path-28" id="svg_11"/>
                    </mask>
                    <g id="Clip-50"/>
                    <path d="M171.03350830078125,13.902099609375 L152.9644775390625,24.3349609375 C152.63250732421875,24.529052734375 152.426513671875,24.884033203125 152.426513671875,25.26904296875 L152.426513671875,25.26904296875 L152.426513671875,50.833984375 C152.426513671875,51.218994140625 152.63250732421875,51.573974609375 152.9644775390625,51.76708984375 L152.9644775390625,51.76708984375 L171.03350830078125,62.199951171875 C171.198486328125,62.294921875 171.386474609375,62.343994140625 171.572509765625,62.343994140625 L171.572509765625,62.343994140625 C171.7564697265625,62.343994140625 171.94451904296875,62.294921875 172.11151123046875,62.199951171875 L172.11151123046875,62.199951171875 C172.4434814453125,62.007080078125 172.6505126953125,61.65087890625 172.6505126953125,61.26611328125 L172.6505126953125,61.26611328125 L172.6505126953125,14.8359375 C172.6505126953125,14.450927734375 172.4434814453125,14.095947265625 172.11151123046875,13.902099609375 L172.11151123046875,13.902099609375 C171.94451904296875,13.806884765625 171.75848388671875,13.759033203125 171.571533203125,13.759033203125 L171.571533203125,13.759033203125 C171.385498046875,13.759033203125 171.199462890625,13.806884765625 171.03350830078125,13.902099609375 L171.03350830078125,13.902099609375 zM154.58148193359375,50.2109375 L154.58148193359375,25.89111328125 L170.4945068359375,16.705078125 L170.4945068359375,59.39794921875 L154.58148193359375,50.2109375 z" id="Fill-49" fill="url(#linearGradient-30)"/>
                    <polygon id="Fill-52" fill="#FFFFFF" points="171.57208251953125,11.869873046875 171.57208251953125,64.22998046875 179.11907958984375,68.5888671875 179.11907958984375,7.512939453125 "/>
                    <mask id="mask-32" fill="white">
                        <use xlink:href="#path-31" id="svg_12"/>
                    </mask>
                    <g id="Clip-55"/>
                    <path d="M178.5794677734375,6.5791015625 L171.03350830078125,10.93701171875 C170.70050048828125,11.1279296875 170.4945068359375,11.485107421875 170.4945068359375,11.8701171875 L170.4945068359375,11.8701171875 L170.4945068359375,64.22998046875 C170.4945068359375,64.614990234375 170.70050048828125,64.971923828125 171.03350830078125,65.1640625 L171.03350830078125,65.1640625 L178.5794677734375,69.52294921875 C178.74652099609375,69.618896484375 178.93450927734375,69.6669921875 179.1195068359375,69.6669921875 L179.1195068359375,69.6669921875 C179.30450439453125,69.6669921875 179.49249267578125,69.618896484375 179.65850830078125,69.52294921875 L179.65850830078125,69.52294921875 C179.990478515625,69.330078125 180.197509765625,68.97509765625 180.197509765625,68.589111328125 L180.197509765625,68.589111328125 L180.197509765625,7.512939453125 C180.197509765625,7.1279296875 179.990478515625,6.77197265625 179.65850830078125,6.5791015625 L179.65850830078125,6.5791015625 C179.49249267578125,6.48291015625 179.30548095703125,6.43505859375 179.1195068359375,6.43505859375 L179.1195068359375,6.43505859375 C178.9324951171875,6.43505859375 178.74652099609375,6.48291015625 178.5794677734375,6.5791015625 L178.5794677734375,6.5791015625 zM172.6505126953125,63.60791015625 L172.6505126953125,12.492919921875 L178.04046630859375,9.382080078125 L178.04046630859375,66.720947265625 L172.6505126953125,63.60791015625 z" id="Fill-54" fill="url(#linearGradient-33)"/>
                </g>
            </g>
        </g>
    </g><path fill="none" fill-opacity="1" stroke="#000000" stroke-opacity="1" stroke-width="1" stroke-dasharray="none" stroke-linejoin="miter" stroke-linecap="butt" stroke-dashoffset="" fill-rule="evenodd" opacity="1" marker-start="" marker-mid="" marker-end="" id="svg_13" d="M155.63157929409908,48.60526698018714 " style="color: rgb(0, 0, 0);"/><path fill="#6d6d6d" fill-opacity="1" stroke="#000000" stroke-opacity="1" stroke-width="1" stroke-dasharray="none" stroke-linejoin="miter" stroke-linecap="butt" stroke-dashoffset="" fill-rule="evenodd" opacity="1" marker-start="" marker-mid="" marker-end="" id="svg_14" d="M154.69677023330257,26.4129042592017 " style="color: rgb(0, 0, 0);"/><path fill="#484848" fill-opacity="1" stroke="#484848" stroke-opacity="1" stroke-width="1" stroke-dasharray="none" stroke-linejoin="miter" stroke-linecap="butt" stroke-dashoffset="" fill-rule="evenodd" opacity="1" marker-start="" marker-mid="" marker-end="" id="svg_15" d="M 154.482 25.9828 L 170.108 16.7742 L 170.323 59.3548 L 154.624 50.3226 L 154.482 25.9828 Z" style="color: rgb(0, 0, 0);"/><path fill="#484848" fill-opacity="1" stroke="#484848" stroke-opacity="1" stroke-width="1" stroke-dasharray="none" stroke-linejoin="miter" stroke-linecap="butt" stroke-dashoffset="" fill-rule="evenodd" opacity="1" marker-start="" marker-mid="" marker-end="" id="svg_17" d="M 172.761 12.6495 L 178.065 9.46237 L 178.065 66.6667 L 172.688 63.2258 L 172.761 12.6495 Z" style="color: rgb(0, 0, 0);"/><path fill="#484848" fill-opacity="1" stroke="#484848" stroke-opacity="1" stroke-width="1" stroke-dasharray="none" stroke-linejoin="miter" stroke-linecap="butt" stroke-dashoffset="" fill-rule="evenodd" opacity="1" marker-start="" marker-mid="" marker-end="" id="svg_19" d="M 53.4064 76.3054 L 98.7097 76.129 C 98.7828 76.3054 97.7075 85.1226 88.0301 85.3376 C 78.3527 85.5527 65.0194 85.5527 64.9462 85.3763" style="color: rgb(0, 0, 0);"/><path fill="#484848" fill-opacity="1" stroke="#484848" stroke-opacity="1" stroke-width="1" stroke-dasharray="none" stroke-linejoin="miter" stroke-linecap="butt" stroke-dashoffset="" fill-rule="evenodd" opacity="1" marker-start="" marker-mid="" marker-end="" id="svg_16" d="M 53.6215 76.7355 C 53.4064 72.6495 52.1161 84.6925 64.1591 85.5527 C 76.2021 86.4129 68.4602 79.3161 68.3871 79.1398 C 68.4602 79.3161 56.8473 77.8108 56.7742 77.6344 C 56.8473 77.8108 53.8366 80.8215 53.6215 76.7355 Z" style="color: rgb(0, 0, 0);"/><polyline fill="none" stroke="#484848" stroke-dashoffset="" fill-rule="evenodd" marker-start="" marker-mid="" marker-end="" id="svg_20" points="55.556987320336226,78.24086018550298 55.556987320336226,78.24086018550298 55.556987320336226,78.24086018550298 55.556987320336226,78.24086018550298 55.34193356130593,78.02580642647268 55.34193356130593,78.02580642647268 55.34193356130593,78.02580642647268 55.34193356130593,78.02580642647268 55.126879802275624,78.02580642647268 55.126879802275624,78.02580642647268 55.126879802275624,78.02580642647268 55.126879802275624,78.02580642647268 54.911826043245334,78.02580642647268 54.911826043245334,78.02580642647268 54.911826043245334,78.02580642647268 54.911826043245334,78.02580642647268 54.69677228421505,78.02580642647268 54.69677228421505,77.8107526674424 54.69677228421505,77.8107526674424 54.69677228421505,77.8107526674424 54.48171852518475,77.8107526674424 54.48171852518475,77.8107526674424 54.48171852518475,77.8107526674424 54.48171852518475,77.8107526674424 54.48171852518475,77.5956989084121 54.48171852518475,77.5956989084121 54.48171852518475,77.5956989084121 54.48171852518475,77.3806451493818 54.48171852518475,77.3806451493818 54.48171852518475,77.16559139035151 54.48171852518475,77.16559139035151 54.48171852518475,77.16559139035151 54.48171852518475,76.95053763132121 54.48171852518475,76.95053763132121 54.48171852518475,76.95053763132121 54.48171852518475,76.95053763132121 54.48171852518475,77.16559139035151 54.48171852518475,77.16559139035151 54.48171852518475,77.16559139035151 54.48171852518475,77.16559139035151 54.48171852518475,77.16559139035151 54.48171852518475,77.3806451493818 54.48171852518475,77.3806451493818 54.48171852518475,77.3806451493818 54.48171852518475,77.3806451493818 54.48171852518475,77.3806451493818 54.48171852518475,77.5956989084121 54.48171852518475,77.5956989084121 54.48171852518475,77.5956989084121 54.48171852518475,77.5956989084121 54.48171852518475,77.5956989084121 54.48171852518475,77.5956989084121 54.48171852518475,77.8107526674424 54.69677228421505,77.8107526674424 54.69677228421505,77.8107526674424 54.69677228421505,77.8107526674424 54.69677228421505,77.8107526674424 54.69677228421505,77.8107526674424 54.69677228421505,78.02580642647268 54.69677228421505,78.02580642647268 54.69677228421505,78.02580642647268 54.911826043245334,78.02580642647268 54.911826043245334,78.02580642647268 54.911826043245334,78.02580642647268 54.911826043245334,78.02580642647268 54.911826043245334,78.24086018550298 54.911826043245334,78.24086018550298 54.911826043245334,78.24086018550298 55.126879802275624,78.24086018550298 55.126879802275624,78.24086018550298 55.126879802275624,78.24086018550298 55.126879802275624,78.24086018550298 55.126879802275624,78.24086018550298 " style="color: rgb(0, 0, 0);"/></g></svg>