<svg xmlns="http://www.w3.org/2000/svg" xmlns:xlink="http://www.w3.org/1999/xlink" width="32" height="32" version="1.1"><rect id="backgroundrect" width="100%" height="100%" x="0" y="0" fill="none" stroke="none"/>
    <!-- Generator: Sketch 63.1 (92452) - https://sketch.com -->
    <title>icon-fav-hover</title>
    <desc>Created with Sketch.</desc>
    <defs>
        <path d="M16.277005,9.49708565 C17.2350987,8.53854203 18.5348228,8 19.8900901,8 C21.2453574,8 22.5450815,8.53854203 23.5031752,9.49708565 C24.461458,10.4549185 25,11.7546426 25,13.1099099 C25,14.4651772 24.461458,15.7649013 23.5030448,16.7228646 L16.5555186,23.6703908 C16.2485981,23.9773114 15.7509815,23.9773114 15.444061,23.6703908 L8.49653479,16.7228646 C6.50115505,14.7274848 6.50115507,11.492335 8.49653484,9.49695525 C10.4919146,7.50157548 13.7270644,7.50157545 15.7224442,9.4969552 L15.9997898,9.77430079 L16.277005,9.49708565 Z M15.9997898,22.0032043 L21.5585127,16.4444814 L22.3917176,15.6112765 C23.0553247,14.9479809 23.4281615,14.0481719 23.4281615,13.1099099 C23.4281615,12.1716479 23.0553247,11.271839 22.3917176,10.6085433 C21.728161,9.94467529 20.8283521,9.5718385 19.8900901,9.5718385 C18.9518281,9.5718385 18.0520191,9.94467529 17.388593,10.6084129 L16.5555186,11.4414873 C16.2485981,11.7484078 15.7509815,11.7484078 15.444061,11.4414873 L14.6109866,10.6084129 C13.2294479,9.22687423 10.9895312,9.22687425 9.6079925,10.6084129 C8.22645385,11.9899516 8.22645383,14.2298683 9.60799246,15.611407 L15.9997898,22.0032043 Z" id="path-1"/>
    </defs>
    
<g class="currentLayer" style=""><title>Layer 1</title><g id="GIFOS" stroke="none" stroke-width="1" fill="none" fill-rule="evenodd" class="">
        <g id="00-UI-Kit">
            <g id="icon-fav-hover">
                <rect id="Rectangle-Copy-7" fill="#FFFFFF" fill-rule="nonzero" x="0" y="0" width="32" height="32" rx="6"/>
                <mask id="mask-2" fill="white">
                    <use xlink:href="#path-1" id="svg_1"/>
                </mask>
                <use fill="#572EE5" fill-rule="nonzero" xlink:href="#path-1" y="0" x="0" id="svg_2"/>
            </g>
        </g>
    </g><polyline fill="none" stroke="#000000" stroke-dashoffset="" fill-rule="evenodd" marker-start="" marker-mid="" marker-end="" id="svg_3" points="11.093457856462743,13.368223909898987 11.140186829258338,13.368223909898987 11.280373747645116,13.368223909898987 11.420560666031895,13.368223909898987 11.607476557214264,13.368223909898987 11.794392448396637,13.368223909898987 12.028037312374602,13.368223909898987 12.214953203556977,13.368223909898987 12.401869094739345,13.368223909898987 12.44859806753494,13.368223909898987 12.588784985921718,13.368223909898987 12.728971904308496,13.41495288269458 12.822429849899683,13.461681855490173 12.869158822695276,13.508410828285763 12.962616768286459,13.55513980108136 13.009345741082052,13.60186877387695 13.056074713877646,13.695326719468138 13.102803686673239,13.742055692263731 13.102803686673239,13.882242610650508 13.14953265946883,13.928971583446101 13.14953265946883,14.115887474628472 13.14953265946883,14.209345420219659 13.14953265946883,14.302803365810846 13.102803686673239,14.442990284197624 13.056074713877646,14.53644822978881 12.962616768286459,14.676635148175588 12.822429849899683,14.770093093766775 12.77570087710409,14.816822066562368 12.682242931512905,14.910280012153551 12.588784985921718,15.003737957744738 12.495327040330531,15.050466930540331 12.44859806753494,15.050466930540331 12.401869094739345,15.097195903335924 12.401869094739345,15.097195903335924 12.355140121943753,15.097195903335924 12.308411149148158,15.097195903335924 12.261682176352567,15.097195903335924 12.261682176352567,15.097195903335924 12.214953203556977,15.050466930540331 12.16822423076138,14.957008984949145 12.121495257965789,14.863551039357962 12.121495257965789,14.723364120971183 12.074766285170194,14.629906175379997 12.074766285170194,14.489719256993219 12.074766285170194,14.349532338606437 12.074766285170194,14.209345420219659 12.074766285170194,14.06915850183288 12.074766285170194,13.975700556241694 12.16822423076138,13.835513637854918 12.261682176352567,13.695326719468138 12.355140121943753,13.648597746672543 12.542056013126121,13.55513980108136 12.682242931512905,13.508410828285763 12.869158822695276,13.461681855490173 13.009345741082052,13.41495288269458 13.102803686673239,13.41495288269458 13.289719577855614,13.41495288269458 13.383177523446795,13.41495288269458 13.523364441833577,13.41495288269458 13.616822387424758,13.41495288269458 13.663551360220355,13.461681855490173 13.710280333015946,13.461681855490173 13.757009305811541,13.55513980108136 13.757009305811541,13.55513980108136 13.757009305811541,13.695326719468138 13.757009305811541,13.788784665059325 13.757009305811541,13.882242610650508 13.757009305811541,13.975700556241694 13.757009305811541,14.115887474628472 13.710280333015946,14.209345420219659 13.663551360220355,14.302803365810846 13.570093414629168,14.396261311402032 13.523364441833577,14.442990284197624 13.476635469037982,14.489719256993219 13.476635469037982,14.53644822978881 13.42990649624239,14.53644822978881 13.42990649624239,14.53644822978881 13.383177523446795,14.53644822978881 13.383177523446795,14.53644822978881 " style="color: rgb(0, 0, 0);"/><polyline fill="none" stroke="#000000" stroke-dashoffset="" fill-rule="evenodd" marker-start="" marker-mid="" marker-end="" id="svg_4" points="16.700934591933894,15.79813049526982 16.700934591933894,15.751401522474225 16.700934591933894,15.751401522474225 16.700934591933894,15.704672549678634 16.700934591933894,15.657943576883039 16.700934591933894,15.564485631291856 16.700934591933894,15.424298712905074 16.700934591933894,15.284111794518296 16.654205619138303,15.14392487613152 16.654205619138303,15.050466930540331 16.654205619138303,14.910280012153551 16.654205619138303,14.770093093766775 16.654205619138303,14.676635148175588 16.654205619138303,14.5831772025844 16.654205619138303,14.489719256993219 16.654205619138303,14.442990284197624 16.700934591933894,14.396261311402032 16.747663564729486,14.349532338606437 16.794392537525077,14.349532338606437 16.887850483116267,14.302803365810846 16.98130842870745,14.256074393015256 17.07476637429864,14.256074393015256 17.168224319889823,14.256074393015256 17.261682265481006,14.256074393015256 17.355140211072197,14.256074393015256 17.49532712945897,14.256074393015256 17.58878507505016,14.256074393015256 17.775700966232534,14.256074393015256 17.822429939028126,14.256074393015256 17.9626168574149,14.349532338606437 18.0093458302105,14.396261311402032 18.102803775801682,14.53644822978881 18.149532748597274,14.629906175379997 18.196261721392865,14.770093093766775 18.196261721392865,14.910280012153551 18.196261721392865,15.050466930540331 18.196261721392865,15.14392487613152 18.196261721392865,15.330840767313893 18.149532748597274,15.471027685700669 18.0093458302105,15.611214604087447 17.91588788461931,15.751401522474225 17.775700966232534,15.891588440861002 17.635514047845753,15.985046386452188 17.54205610225457,16.125233304838968 17.355140211072197,16.171962277634563 17.308411238276605,16.218691250430155 17.07476637429864,16.358878168816933 16.98130842870745,16.358878168816933 16.887850483116267,16.358878168816933 16.747663564729486,16.405607141612528 16.654205619138303,16.405607141612528 16.560747673547112,16.405607141612528 16.46728972795593,16.405607141612528 16.373831782364746,16.405607141612528 16.280373836773556,16.358878168816933 16.186915891182373,16.26542022322575 16.093457945591183,16.125233304838968 16.04672897279559,16.031775359247785 16,15.891588440861002 15.953271027204407,15.751401522474225 15.953271027204407,15.657943576883039 15.953271027204407,15.51775665849626 15.953271027204407,15.424298712905074 15.953271027204407,15.330840767313893 15.953271027204407,15.237382821722706 15.953271027204407,15.14392487613152 16,15.050466930540331 16.04672897279559,15.050466930540331 16.14018691838678,15.003737957744738 16.186915891182373,14.957008984949145 16.280373836773556,14.957008984949145 16.327102809569148,14.957008984949145 16.373831782364746,14.957008984949145 16.373831782364746,14.910280012153551 16.420560755160338,14.910280012153551 16.420560755160338,14.910280012153551 16.46728972795593,14.910280012153551 16.46728972795593,14.910280012153551 " style="color: rgb(0, 0, 0);"/><polyline fill="#572ee5" stroke="#000000" stroke-dashoffset="" fill-rule="evenodd" marker-start="" marker-mid="" marker-end="" id="svg_5" points="19.130841177304724,14.115887474628474 19.084112204509132,14.115887474628474 19.084112204509132,14.06915850183288 19.084112204509132,13.928971583446101 19.084112204509132,13.835513637854918 19.084112204509132,13.648597746672543 19.084112204509132,13.461681855490175 19.084112204509132,13.321494937103393 19.084112204509132,13.134579045921024 19.084112204509132,13.087850073125429 19.130841177304724,12.94766315473865 19.177570150100316,12.854205209147464 19.224299122895907,12.807476236351874 19.271028095691506,12.760747263556281 19.317757068487097,12.714018290760686 19.36448604128269,12.714018290760686 19.45794398687387,12.714018290760686 19.551401932465062,12.714018290760686 19.598130905260653,12.714018290760686 19.691588850851836,12.714018290760686 19.785046796443027,12.760747263556281 19.87850474203421,12.854205209147464 19.971962687625393,12.94766315473865 20.065420633216583,13.041121100329837 20.112149606012174,13.228036991512212 20.158878578807766,13.368223909898989 20.205607551603357,13.555139801081356 20.252336524398956,13.742055692263731 20.252336524398956,13.928971583446101 20.252336524398956,14.115887474628474 20.252336524398956,14.302803365810849 20.252336524398956,14.442990284197625 20.205607551603357,14.583177202584404 20.158878578807766,14.723364120971182 20.065420633216583,14.863551039357958 19.9252337148298,14.957008984949145 19.785046796443027,15.050466930540331 19.691588850851836,15.14392487613152 19.50467295966947,15.190653848927113 19.41121501407828,15.237382821722703 19.177570150100316,15.2841117945183 19.03738323171354,15.2841117945183 18.89719631332676,15.2841117945183 18.757009394939985,15.2841117945183 18.57009350375761,15.2841117945183 18.42990658537083,15.237382821722703 18.289719666984055,15.14392487613152 18.149532748597274,15.003737957744741 18.009345830210492,14.863551039357958 17.91588788461931,14.67663514817559 17.822429939028126,14.489719256993217 17.822429939028126,14.302803365810849 17.822429939028126,14.06915850183288 17.822429939028126,13.835513637854918 17.822429939028126,13.601868773876953 17.822429939028126,13.41495288269458 17.9626168574149,13.181308018716615 18.102803775801682,12.994392127534244 18.242990694188457,12.807476236351874 18.47663555816642,12.667289317965093 18.616822476553203,12.527102399578316 18.803738367735576,12.480373426782723 18.99065425891795,12.386915481191537 19.224299122895907,12.386915481191537 19.45794398687387,12.386915481191537 19.598130905260653,12.386915481191537 19.738317823647428,12.386915481191537 19.87850474203421,12.386915481191537 20.01869166042099,12.386915481191537 20.112149606012174,12.386915481191537 20.205607551603357,12.480373426782723 20.252336524398956,12.527102399578316 20.299065497194547,12.573831372373906 20.299065497194547,12.667289317965093 20.34579446999014,12.714018290760686 20.34579446999014,12.760747263556281 20.34579446999014,12.854205209147464 20.34579446999014,12.94766315473865 20.299065497194547,13.041121100329837 20.252336524398956,13.134579045921024 20.158878578807766,13.274765964307802 20.112149606012174,13.321494937103393 19.971962687625393,13.41495288269458 19.9252337148298,13.461681855490175 19.831775769238618,13.555139801081356 19.831775769238618,13.555139801081356 19.785046796443027,13.601868773876953 19.738317823647428,13.601868773876953 19.738317823647428,13.601868773876953 19.738317823647428,13.648597746672543 19.738317823647428,13.648597746672543 19.691588850851836,13.648597746672543 19.691588850851836,13.648597746672543 19.691588850851836,13.601868773876953 19.691588850851836,13.555139801081356 19.644859878056245,13.461681855490175 19.644859878056245,13.41495288269458 19.644859878056245,13.274765964307802 19.644859878056245,13.181308018716615 19.644859878056245,13.087850073125429 19.644859878056245,12.94766315473865 19.738317823647428,12.807476236351874 19.785046796443027,12.760747263556281 19.831775769238618,12.667289317965093 19.87850474203421,12.6205603451695 19.971962687625393,12.573831372373906 20.01869166042099,12.527102399578316 20.065420633216583,12.480373426782723 20.158878578807766,12.480373426782723 20.205607551603357,12.480373426782723 20.252336524398956,12.480373426782723 20.34579446999014,12.480373426782723 20.39252344278573,12.527102399578316 20.439252415581322,12.6205603451695 20.48598138837692,12.760747263556281 20.579439333968104,12.854205209147464 20.626168306763695,12.994392127534244 20.626168306763695,13.181308018716615 20.672897279559287,13.321494937103393 20.672897279559287,13.508410828285767 20.672897279559287,13.695326719468138 20.626168306763695,13.882242610650511 20.532710361172512,14.06915850183288 20.39252344278573,14.256074393015252 20.158878578807766,14.39626131140203 19.9252337148298,14.583177202584404 19.738317823647428,14.723364120971182 19.41121501407828,14.816822066562368 19.177570150100316,14.910280012153555 18.94392528612235,14.957008984949145 18.710280422144386,15.003737957744741 18.42990658537083,15.050466930540331 18.196261721392865,15.050466930540331 18.009345830210492,15.050466930540331 17.775700966232527,15.003737957744741 17.728971993436936,14.957008984949145 17.58878507505016,14.910280012153555 17.44859815666338,14.816822066562368 17.355140211072197,14.770093093766777 17.261682265481006,14.723364120971182 17.261682265481006,14.67663514817559 17.214953292685415,14.67663514817559 17.168224319889823,14.629906175379995 17.168224319889823,14.583177202584404 17.168224319889823,14.536448229788812 17.168224319889823,14.489719256993217 17.168224319889823,14.489719256993217 17.168224319889823,14.442990284197625 " style="color: rgb(87, 46, 229);"/><polyline fill="none" stroke="#000000" stroke-dashoffset="" fill-rule="evenodd" marker-start="" marker-mid="" marker-end="" id="svg_6" points="16.04672897279559,14.957008984949145 15.999999999999998,14.910280012153555 15.999999999999998,14.910280012153555 15.999999999999998,14.816822066562368 15.999999999999998,14.723364120971182 15.999999999999998,14.629906175379995 16.093457945591183,14.489719256993217 16.14018691838678,14.349532338606439 16.280373836773556,14.162616447424066 16.51401870075152,13.882242610650511 16.654205619138303,13.742055692263731 16.794392537525077,13.601868773876953 16.93457945591186,13.508410828285767 17.074766374298633,13.461681855490175 17.214953292685415,13.41495288269458 17.355140211072197,13.368223909898989 17.49532712945897,13.368223909898989 17.635514047845753,13.368223909898989 17.775700966232527,13.368223909898989 17.91588788461931,13.41495288269458 18.05607480300609,13.508410828285767 18.149532748597274,13.648597746672543 18.242990694188457,13.788784665059325 18.289719666984055,13.975700556241694 18.336448639779647,14.162616447424066 18.38317761257524,14.39626131140203 18.38317761257524,14.67663514817559 18.38317761257524,14.957008984949145 18.38317761257524,15.2841117945183 18.242990694188457,15.564485631291854 18.05607480300609,15.891588440861005 17.869158911823718,16.171962277634563 17.682243020641344,16.405607141612528 17.49532712945897,16.639252005590492 17.261682265481006,16.779438923977274 17.028037401503042,16.91962584236405 16.841121510320676,17.01308378795523 16.654205619138303,17.106541733546422 16.420560755160338,17.153270706342013 16.233644863977965,17.153270706342013 16.04672897279559,17.153270706342013 15.85981308161322,17.153270706342013 15.672897190430852,17.153270706342013 15.532710272044069,17.106541733546422 15.39252335365729,17.05981276075083 15.299065408066108,16.96635481515964 15.158878489679328,16.872896869568457 15.065420544088143,16.732709951181675 14.92523362570136,16.5925230327949 14.831775680110178,16.405607141612528 14.785046707314583,16.218691250430155 14.691588761723397,15.985046386452192 14.644859788927805,15.751401522474227 14.644859788927805,15.517756658496262 14.644859788927805,15.2841117945183 14.644859788927805,15.050466930540331 14.644859788927805,14.863551039357958 14.738317734518992,14.67663514817559 14.87850465290577,14.536448229788812 15.018691571292546,14.442990284197625 15.158878489679328,14.349532338606439 15.299065408066108,14.302803365810849 15.439252326452884,14.302803365810849 15.626168217635255,14.302803365810849 15.766355136022034,14.302803365810849 15.953271027204407,14.302803365810849 16.093457945591183,14.302803365810849 16.186915891182373,14.39626131140203 16.327102809569148,14.489719256993217 16.420560755160338,14.583177202584404 16.51401870075152,14.723364120971182 16.560747673547112,14.863551039357958 16.60747664634271,15.003737957744741 16.654205619138303,15.14392487613152 16.700934591933894,15.2841117945183 16.700934591933894,15.424298712905076 16.700934591933894,15.61121460408745 16.700934591933894,15.751401522474227 16.60747664634271,15.844859468065414 16.51401870075152,15.985046386452192 16.46728972795593,16.03177535924778 16.373831782364746,16.12523330483897 16.233644863977965,16.218691250430155 16.14018691838678,16.265420223225746 16.04672897279559,16.312149196021345 15.999999999999998,16.312149196021345 15.906542054408815,16.312149196021345 15.813084108817629,16.358878168816936 15.719626163226442,16.358878168816936 15.672897190430852,16.358878168816936 15.626168217635255,16.358878168816936 15.579439244839666,16.358878168816936 " style="color: rgb(87, 46, 229);"/><polyline fill="#572ee5" stroke="#572ee5" stroke-dashoffset="" fill-rule="evenodd" marker-start="" marker-mid="" marker-end="" id="svg_7" points="8.47663537990954,14.349532338606437 8.47663537990954,14.349532338606437 8.47663537990954,14.302803365810846 8.47663537990954,14.302803365810846 8.47663537990954,14.209345420219659 8.47663537990954,14.16261644742407 8.47663537990954,14.115887474628472 8.47663537990954,14.06915850183288 8.47663537990954,14.022429529037288 8.47663537990954,13.975700556241694 8.47663537990954,13.928971583446101 8.47663537990954,13.882242610650508 8.47663537990954,13.835513637854918 8.47663537990954,13.742055692263731 8.47663537990954,13.695326719468138 8.47663537990954,13.60186877387695 8.47663537990954,13.55513980108136 8.47663537990954,13.461681855490173 8.47663537990954,13.414952882694582 8.523364352705132,13.368223909898987 8.523364352705132,13.2747659643078 8.523364352705132,13.228036991512209 8.523364352705132,13.181308018716617 8.523364352705132,13.134579045921022 8.523364352705132,13.134579045921022 8.570093325500727,13.08785007312543 8.570093325500727,13.041121100329836 8.570093325500727,12.994392127534244 8.570093325500727,12.947663154738654 8.570093325500727,12.900934181943057 8.570093325500727,12.900934181943057 8.570093325500727,12.854205209147468 8.570093325500727,12.854205209147468 8.570093325500727,12.80747623635187 8.570093325500727,12.760747263556281 8.570093325500727,12.714018290760686 8.570093325500727,12.667289317965093 8.570093325500727,12.667289317965093 8.616822298296318,12.6205603451695 8.616822298296318,12.527102399578313 8.616822298296318,12.480373426782723 8.616822298296318,12.43364445398713 8.616822298296318,12.386915481191537 8.66355127109191,12.340186508395943 8.66355127109191,12.29345753560035 8.66355127109191,12.29345753560035 8.66355127109191,12.246728562804758 8.66355127109191,12.199999590009162 8.66355127109191,12.153270617213572 8.710280243887505,12.153270617213572 8.710280243887505,12.106541644417975 8.710280243887505,12.059812671622385 8.710280243887505,12.013083698826794 8.710280243887505,12.013083698826794 8.757009216683096,11.966354726031199 8.757009216683096,11.919625753235607 8.757009216683096,11.872896780440012 8.803738189478691,11.82616780764442 8.803738189478691,11.779438834848829 8.850467162274283,11.732709862053234 8.850467162274283,11.685980889257642 8.897196135069875,11.685980889257642 8.897196135069875,11.639251916462051 8.897196135069875,11.592522943666456 8.94392510786547,11.545793970870864 8.94392510786547,11.545793970870864 8.94392510786547,11.49906499807527 8.990654080661061,11.452336025279678 9.037383053456656,11.405607052484086 9.037383053456656,11.358878079688491 9.084112026252248,11.3121491068929 9.084112026252248,11.265420134097308 9.13084099904784,11.218691161301713 9.177569971843434,11.171962188506122 9.177569971843434,11.171962188506122 9.224298944639026,11.125233215710526 9.224298944639026,11.078504242914935 9.224298944639026,11.031775270119343 9.27102791743462,11.031775270119343 9.27102791743462,11.031775270119343 9.27102791743462,11.031775270119343 9.317756890230212,11.031775270119343 9.317756890230212,10.985046297323748 9.317756890230212,10.985046297323748 9.317756890230212,10.985046297323748 9.317756890230212,10.985046297323748 9.364485863025804,10.938317324528157 9.411214835821399,10.891588351732562 9.411214835821399,10.84485937893697 9.45794380861699,10.798130406141379 9.504672781412586,10.798130406141379 9.504672781412586,10.751401433345784 9.551401754208177,10.704672460550192 9.551401754208177,10.704672460550192 9.598130727003769,10.704672460550192 9.598130727003769,10.657943487754597 9.598130727003769,10.657943487754597 9.598130727003769,10.657943487754597 9.644859699799364,10.657943487754597 9.644859699799364,10.611214514959006 9.644859699799364,10.611214514959006 9.691588672594955,10.611214514959006 9.73831764539055,10.564485542163414 9.73831764539055,10.517756569367819 9.785046618186142,10.517756569367819 9.831775590981733,10.471027596572227 9.878504563777328,10.471027596572227 9.92523353657292,10.424298623776632 9.971962509368515,10.377569650981041 10.018691482164106,10.377569650981041 10.018691482164106,10.33084067818545 10.065420454959698,10.33084067818545 10.112149427755293,10.284111705389854 10.112149427755293,10.284111705389854 10.158878400550885,10.284111705389854 10.20560737334648,10.237382732594263 10.20560737334648,10.237382732594263 10.252336346142071,10.190653759798671 10.299065318937663,10.190653759798671 10.345794291733258,10.190653759798671 10.345794291733258,10.143924787003076 10.39252326452885,10.143924787003076 10.43925223732444,10.097195814207485 10.485981210120036,10.097195814207485 10.485981210120036,10.097195814207485 10.532710182915627,10.05046684141189 10.579439155711222,10.05046684141189 10.626168128506814,10.05046684141189 10.672897101302405,10.05046684141189 10.672897101302405,10.003737868616298 10.719626074098,10.003737868616298 10.766355046893592,10.003737868616298 10.813084019689187,9.957008895820707 10.859812992484779,9.957008895820707 10.859812992484779,9.957008895820707 10.90654196528037,9.910279923025112 10.953270938075965,9.910279923025112 10.953270938075965,9.910279923025112 10.999999910871557,9.910279923025112 10.999999910871557,9.910279923025112 11.046728883667152,9.910279923025112 11.046728883667152,9.910279923025112 11.093457856462743,9.910279923025112 11.093457856462743,9.910279923025112 11.140186829258335,9.86355095022952 11.140186829258335,9.86355095022952 11.18691580205393,9.86355095022952 11.233644774849521,9.86355095022952 11.233644774849521,9.86355095022952 11.280373747645116,9.86355095022952 11.280373747645116,9.816821977433925 11.327102720440708,9.816821977433925 11.327102720440708,9.816821977433925 11.3738316932363,9.816821977433925 11.3738316932363,9.816821977433925 11.420560666031895,9.816821977433925 11.467289638827486,9.816821977433925 11.467289638827486,9.816821977433925 11.514018611623081,9.816821977433925 11.560747584418673,9.770093004638333 11.560747584418673,9.770093004638333 11.607476557214264,9.770093004638333 11.607476557214264,9.770093004638333 11.65420553000986,9.770093004638333 11.65420553000986,9.770093004638333 11.70093450280545,9.770093004638333 11.747663475601046,9.770093004638333 11.747663475601046,9.770093004638333 11.794392448396637,9.770093004638333 11.841121421192229,9.770093004638333 11.887850393987824,9.770093004638333 11.887850393987824,9.770093004638333 11.934579366783415,9.770093004638333 11.981308339579007,9.770093004638333 12.028037312374602,9.770093004638333 12.074766285170194,9.723364031842742 12.074766285170194,9.723364031842742 12.121495257965789,9.723364031842742 12.16822423076138,9.723364031842742 12.214953203556972,9.723364031842742 12.261682176352567,9.723364031842742 12.308411149148158,9.723364031842742 12.308411149148158,9.723364031842742 12.355140121943753,9.723364031842742 12.401869094739345,9.723364031842742 12.448598067534935,9.723364031842742 12.495327040330531,9.723364031842742 12.542056013126121,9.723364031842742 12.588784985921718,9.723364031842742 12.635513958717308,9.723364031842742 12.682242931512903,9.723364031842742 12.728971904308496,9.723364031842742 12.728971904308496,9.723364031842742 12.77570087710409,9.723364031842742 12.822429849899683,9.723364031842742 12.869158822695276,9.723364031842742 12.869158822695276,9.723364031842742 12.915887795490866,9.723364031842742 12.962616768286459,9.723364031842742 13.009345741082052,9.723364031842742 13.056074713877646,9.723364031842742 13.102803686673239,9.770093004638333 13.102803686673239,9.770093004638333 13.14953265946883,9.770093004638333 13.196261632264427,9.770093004638333 13.196261632264427,9.816821977433925 13.242990605060017,9.816821977433925 13.289719577855614,9.816821977433925 13.336448550651204,9.816821977433925 13.336448550651204,9.86355095022952 13.383177523446795,9.86355095022952 13.42990649624239,9.86355095022952 13.476635469037982,9.910279923025112 13.476635469037982,9.910279923025112 13.523364441833577,9.957008895820707 13.523364441833577,9.957008895820707 13.570093414629168,9.957008895820707 13.616822387424758,10.003737868616298 13.616822387424758,10.003737868616298 13.663551360220355,10.05046684141189 13.710280333015946,10.05046684141189 13.710280333015946,10.05046684141189 13.75700930581154,10.097195814207485 13.803738278607133,10.143924787003076 13.850467251402726,10.143924787003076 13.850467251402726,10.190653759798671 13.89719622419832,10.190653759798671 13.94392519699391,10.237382732594263 13.990654169789503,10.237382732594263 13.990654169789503,10.284111705389854 14.037383142585096,10.284111705389854 14.08411211538069,10.284111705389854 14.130841088176284,10.33084067818545 14.177570060971878,10.33084067818545 14.224299033767467,10.377569650981041 14.224299033767467,10.377569650981041 14.271028006563064,10.424298623776632 14.317756979358654,10.424298623776632 14.364485952154247,10.471027596572227 14.41121492494984,10.471027596572227 14.41121492494984,10.517756569367819 14.457943897745432,10.517756569367819 14.504672870541027,10.517756569367819 14.551401843336619,10.564485542163414 14.598130816132215,10.564485542163414 14.644859788927805,10.611214514959006 14.691588761723397,10.611214514959006 14.738317734518992,10.657943487754597 14.785046707314583,10.657943487754597 14.785046707314583,10.704672460550192 14.831775680110178,10.751401433345784 14.92523362570136,10.751401433345784 14.971962598496956,10.798130406141379 15.018691571292546,10.798130406141379 15.018691571292546,10.84485937893697 15.065420544088143,10.84485937893697 15.112149516883735,10.891588351732562 15.158878489679328,10.891588351732562 15.205607462474921,10.938317324528157 15.252336435270514,10.938317324528157 15.299065408066108,10.985046297323748 15.299065408066108,10.985046297323748 15.345794380861697,11.031775270119343 15.39252335365729,11.078504242914935 15.439252326452884,11.078504242914935 15.439252326452884,11.125233215710526 15.485981299248477,11.125233215710526 15.532710272044069,11.171962188506122 15.579439244839666,11.171962188506122 15.579439244839666,11.218691161301713 15.626168217635255,11.218691161301713 15.626168217635255,11.218691161301713 15.672897190430852,11.265420134097308 15.672897190430852,11.265420134097308 15.719626163226442,11.3121491068929 15.766355136022034,11.3121491068929 15.766355136022034,11.358878079688491 15.813084108817629,11.358878079688491 15.85981308161322,11.405607052484086 15.906542054408815,11.452336025279678 15.906542054408815,11.452336025279678 15.953271027204407,11.452336025279678 15.953271027204407,11.49906499807527 15.999999999999998,11.49906499807527 15.999999999999998,11.545793970870864 16.04672897279559,11.545793970870864 16.04672897279559,11.545793970870864 16.093457945591183,11.545793970870864 16.093457945591183,11.592522943666456 16.14018691838678,11.592522943666456 16.186915891182373,11.592522943666456 16.233644863977965,11.639251916462051 16.233644863977965,11.639251916462051 16.280373836773556,11.639251916462051 16.327102809569148,11.639251916462051 16.373831782364746,11.639251916462051 16.420560755160338,11.639251916462051 16.46728972795593,11.639251916462051 16.46728972795593,11.639251916462051 16.51401870075152,11.639251916462051 16.560747673547112,11.639251916462051 16.60747664634271,11.639251916462051 16.654205619138303,11.639251916462051 16.700934591933894,11.639251916462051 16.747663564729486,11.639251916462051 16.794392537525077,11.639251916462051 16.841121510320676,11.639251916462051 16.887850483116267,11.639251916462051 16.887850483116267,11.639251916462051 16.93457945591186,11.639251916462051 16.98130842870745,11.639251916462051 17.028037401503042,11.639251916462051 17.074766374298633,11.639251916462051 17.074766374298633,11.639251916462051 17.121495347094232,11.639251916462051 17.168224319889823,11.639251916462051 17.168224319889823,11.592522943666456 17.214953292685415,11.592522943666456 17.261682265481006,11.545793970870864 17.261682265481006,11.545793970870864 17.308411238276598,11.545793970870864 17.308411238276598,11.49906499807527 17.355140211072197,11.49906499807527 17.401869183867788,11.452336025279678 17.401869183867788,11.452336025279678 17.44859815666338,11.452336025279678 17.49532712945897,11.405607052484086 17.542056102254563,11.358878079688491 17.542056102254563,11.358878079688491 17.58878507505016,11.3121491068929 17.635514047845753,11.3121491068929 17.635514047845753,11.265420134097308 17.682243020641344,11.265420134097308 17.728971993436936,11.218691161301713 17.728971993436936,11.218691161301713 17.775700966232527,11.171962188506122 17.775700966232527,11.171962188506122 17.822429939028126,11.125233215710526 17.869158911823718,11.125233215710526 17.869158911823718,11.078504242914935 17.91588788461931,11.078504242914935 17.91588788461931,11.031775270119343 17.9626168574149,10.985046297323748 18.009345830210492,10.938317324528157 18.009345830210492,10.938317324528157 18.05607480300609,10.891588351732562 18.102803775801682,10.84485937893697 18.149532748597274,10.798130406141379 18.196261721392865,10.751401433345784 18.196261721392865,10.751401433345784 18.242990694188457,10.704672460550192 18.242990694188457,10.657943487754597 18.289719666984055,10.657943487754597 18.336448639779647,10.611214514959006 18.336448639779647,10.611214514959006 18.38317761257524,10.564485542163414 18.42990658537083,10.517756569367819 18.42990658537083,10.517756569367819 18.47663555816642,10.471027596572227 18.47663555816642,10.471027596572227 18.52336453096202,10.424298623776632 18.52336453096202,10.424298623776632 18.57009350375761,10.377569650981041 18.616822476553203,10.377569650981041 18.616822476553203,10.33084067818545 18.663551449348795,10.33084067818545 18.663551449348795,10.33084067818545 18.710280422144386,10.284111705389854 18.710280422144386,10.284111705389854 18.757009394939985,10.237382732594263 18.757009394939985,10.237382732594263 18.803738367735576,10.237382732594263 18.803738367735576,10.237382732594263 18.850467340531168,10.190653759798671 18.850467340531168,10.190653759798671 18.89719631332676,10.190653759798671 18.89719631332676,10.190653759798671 18.94392528612235,10.143924787003076 18.94392528612235,10.143924787003076 18.99065425891795,10.143924787003076 18.99065425891795,10.097195814207485 19.03738323171354,10.097195814207485 19.03738323171354,10.097195814207485 19.084112204509132,10.097195814207485 19.084112204509132,10.05046684141189 19.084112204509132,10.05046684141189 19.130841177304724,10.05046684141189 19.130841177304724,10.05046684141189 19.130841177304724,10.05046684141189 19.130841177304724,10.05046684141189 19.130841177304724,10.05046684141189 19.130841177304724,10.05046684141189 19.084112204509132,10.05046684141189 19.084112204509132,10.05046684141189 19.03738323171354,10.05046684141189 18.94392528612235,10.05046684141189 18.94392528612235,10.05046684141189 18.850467340531168,10.05046684141189 18.757009394939985,10.097195814207485 18.710280422144386,10.143924787003076 18.663551449348795,10.190653759798671 18.57009350375761,10.237382732594263 18.47663555816642,10.237382732594263 18.38317761257524,10.33084067818545 18.289719666984055,10.377569650981041 18.242990694188457,10.424298623776632 18.149532748597274,10.424298623776632 18.102803775801682,10.517756569367819 18.009345830210492,10.517756569367819 18.009345830210492,10.564485542163414 17.9626168574149,10.564485542163414 17.91588788461931,10.611214514959006 17.869158911823718,10.611214514959006 17.822429939028126,10.657943487754597 17.775700966232527,10.657943487754597 17.728971993436936,10.704672460550192 17.682243020641344,10.704672460550192 17.635514047845753,10.751401433345784 17.58878507505016,10.798130406141379 17.542056102254563,10.798130406141379 17.49532712945897,10.84485937893697 17.44859815666338,10.84485937893697 17.44859815666338,10.84485937893697 17.401869183867788,10.891588351732562 17.355140211072197,10.891588351732562 17.355140211072197,10.891588351732562 17.355140211072197,10.938317324528157 17.355140211072197,10.938317324528157 17.308411238276598,10.938317324528157 17.308411238276598,10.985046297323748 17.261682265481006,10.985046297323748 17.214953292685415,11.031775270119343 17.168224319889823,11.078504242914935 17.121495347094232,11.125233215710526 17.121495347094232,11.125233215710526 17.074766374298633,11.171962188506122 17.074766374298633,11.171962188506122 17.028037401503042,11.171962188506122 17.028037401503042,11.218691161301713 17.028037401503042,11.218691161301713 17.028037401503042,11.218691161301713 17.028037401503042,11.218691161301713 17.028037401503042,11.171962188506122 17.028037401503042,11.171962188506122 17.028037401503042,11.171962188506122 17.028037401503042,11.171962188506122 17.028037401503042,11.125233215710526 17.028037401503042,11.125233215710526 17.028037401503042,11.125233215710526 17.074766374298633,11.078504242914935 17.121495347094232,11.031775270119343 17.214953292685415,10.985046297323748 17.261682265481006,10.938317324528157 17.355140211072197,10.84485937893697 17.44859815666338,10.798130406141379 17.542056102254563,10.704672460550192 17.682243020641344,10.611214514959006 17.728971993436936,10.564485542163414 17.869158911823718,10.471027596572227 17.9626168574149,10.377569650981041 18.05607480300609,10.33084067818545 18.149532748597274,10.284111705389854 18.196261721392865,10.237382732594263 18.289719666984055,10.190653759798671 18.38317761257524,10.097195814207485 18.42990658537083,10.097195814207485 18.47663555816642,10.05046684141189 18.57009350375761,10.003737868616298 18.616822476553203,10.003737868616298 18.710280422144386,9.957008895820707 18.757009394939985,9.957008895820707 18.803738367735576,9.910279923025112 18.850467340531168,9.910279923025112 18.94392528612235,9.86355095022952 18.99065425891795,9.86355095022952 18.99065425891795,9.86355095022952 19.084112204509132,9.86355095022952 19.130841177304724,9.816821977433925 19.177570150100316,9.816821977433925 19.224299122895907,9.816821977433925 19.271028095691506,9.816821977433925 19.317757068487097,9.816821977433925 19.36448604128269,9.816821977433925 19.41121501407828,9.816821977433925 19.45794398687387,9.816821977433925 19.45794398687387,9.816821977433925 19.50467295966947,9.816821977433925 19.551401932465062,9.816821977433925 19.551401932465062,9.816821977433925 19.551401932465062,9.816821977433925 19.551401932465062,9.816821977433925 19.598130905260653,9.816821977433925 19.598130905260653,9.816821977433925 19.598130905260653,9.816821977433925 19.598130905260653,9.816821977433925 19.644859878056245,9.816821977433925 19.644859878056245,9.816821977433925 19.691588850851836,9.816821977433925 19.738317823647428,9.816821977433925 19.785046796443027,9.816821977433925 19.831775769238618,9.816821977433925 19.87850474203421,9.816821977433925 19.9252337148298,9.816821977433925 20.01869166042099,9.86355095022952 20.065420633216583,9.86355095022952 20.112149606012174,9.86355095022952 20.158878578807766,9.86355095022952 20.205607551603357,9.86355095022952 20.252336524398956,9.86355095022952 20.299065497194547,9.86355095022952 20.34579446999014,9.910279923025112 20.39252344278573,9.910279923025112 20.439252415581322,9.910279923025112 20.532710361172512,9.910279923025112 20.579439333968104,9.910279923025112 20.626168306763695,9.910279923025112 20.672897279559287,9.910279923025112 20.719626252354885,9.910279923025112 20.766355225150477,9.910279923025112 20.766355225150477,9.910279923025112 20.81308419794607,9.910279923025112 20.85981317074166,9.910279923025112 20.90654214353725,9.957008895820707 20.95327111633285,9.957008895820707 21.00000008912844,9.957008895820707 21.00000008912844,9.957008895820707 21.046729061924033,9.957008895820707 21.046729061924033,9.957008895820707 21.093458034719625,9.957008895820707 21.140187007515216,9.957008895820707 21.140187007515216,9.957008895820707 21.186915980310815,10.003737868616298 21.186915980310815,10.003737868616298 21.186915980310815,10.003737868616298 21.233644953106406,10.003737868616298 21.280373925901998,10.003737868616298 21.280373925901998,10.05046684141189 21.280373925901998,10.05046684141189 21.32710289869759,10.05046684141189 21.37383187149318,10.05046684141189 21.37383187149318,10.05046684141189 21.37383187149318,10.097195814207485 21.42056084428878,10.097195814207485 21.42056084428878,10.097195814207485 21.46728981708437,10.097195814207485 21.46728981708437,10.143924787003076 21.514018789879962,10.143924787003076 21.560747762675554,10.143924787003076 21.560747762675554,10.143924787003076 21.607476735471145,10.143924787003076 21.654205708266744,10.190653759798671 21.700934681062336,10.190653759798671 21.700934681062336,10.190653759798671 21.747663653857927,10.237382732594263 21.79439262665352,10.237382732594263 21.84112159944911,10.284111705389854 21.88785057224471,10.284111705389854 21.9345795450403,10.33084067818545 21.981308517835892,10.33084067818545 22.028037490631483,10.377569650981041 22.028037490631483,10.377569650981041 22.074766463427075,10.424298623776632 22.121495436222673,10.471027596572227 22.168224409018265,10.471027596572227 22.214953381813856,10.517756569367819 22.261682354609448,10.517756569367819 22.261682354609448,10.564485542163414 22.30841132740504,10.611214514959006 22.30841132740504,10.611214514959006 22.355140300200638,10.657943487754597 22.40186927299623,10.657943487754597 22.40186927299623,10.704672460550192 22.44859824579182,10.704672460550192 22.495327218587413,10.751401433345784 22.495327218587413,10.751401433345784 22.542056191383004,10.798130406141379 22.542056191383004,10.798130406141379 22.542056191383004,10.84485937893697 22.588785164178603,10.84485937893697 22.588785164178603,10.84485937893697 22.635514136974194,10.891588351732562 22.635514136974194,10.891588351732562 22.635514136974194,10.938317324528157 22.682243109769786,10.938317324528157 22.682243109769786,10.985046297323748 22.728972082565377,10.985046297323748 22.728972082565377,10.985046297323748 22.77570105536097,11.031775270119343 22.77570105536097,11.031775270119343 22.822430028156568,11.031775270119343 22.822430028156568,11.078504242914935 22.86915900095216,11.078504242914935 22.86915900095216,11.125233215710526 22.91588797374775,11.125233215710526 22.91588797374775,11.125233215710526 22.91588797374775,11.171962188506122 22.962616946543342,11.218691161301713 22.962616946543342,11.218691161301713 23.009345919338934,11.218691161301713 23.009345919338934,11.265420134097308 23.056074892134532,11.3121491068929 23.056074892134532,11.3121491068929 23.056074892134532,11.358878079688491 23.102803864930124,11.358878079688491 23.102803864930124,11.405607052484086 23.149532837725715,11.452336025279678 23.149532837725715,11.452336025279678 23.196261810521307,11.49906499807527 23.2429907833169,11.545793970870864 23.2429907833169,11.592522943666456 23.2429907833169,11.639251916462051 23.28971975611249,11.685980889257642 23.28971975611249,11.732709862053234 23.33644872890809,11.82616780764442 23.33644872890809,11.872896780440012 23.38317770170368,11.919625753235607 23.38317770170368,11.966354726031199 23.38317770170368,12.013083698826794 23.42990667449927,12.013083698826794 23.42990667449927,12.059812671622385 23.42990667449927,12.106541644417975 23.476635647294863,12.153270617213572 23.476635647294863,12.199999590009162 23.476635647294863,12.246728562804758 23.476635647294863,12.340186508395943 23.523364620090454,12.340186508395943 23.523364620090454,12.386915481191537 23.523364620090454,12.480373426782723 23.523364620090454,12.527102399578313 23.523364620090454,12.573831372373906 23.523364620090454,12.6205603451695 23.523364620090454,12.667289317965093 23.523364620090454,12.714018290760686 23.523364620090454,12.760747263556281 23.523364620090454,12.854205209147468 23.523364620090454,12.900934181943057 23.523364620090454,12.947663154738654 23.523364620090454,13.041121100329836 23.523364620090454,13.134579045921022 23.523364620090454,13.181308018716617 23.523364620090454,13.228036991512209 23.523364620090454,13.2747659643078 23.523364620090454,13.368223909898987 23.523364620090454,13.414952882694582 23.523364620090454,13.461681855490173 23.523364620090454,13.508410828285763 23.523364620090454,13.55513980108136 23.523364620090454,13.60186877387695 23.523364620090454,13.648597746672543 23.523364620090454,13.695326719468138 23.523364620090454,13.742055692263731 23.523364620090454,13.788784665059325 23.523364620090454,13.788784665059325 23.523364620090454,13.835513637854918 23.523364620090454,13.882242610650508 23.523364620090454,13.928971583446101 23.523364620090454,14.022429529037288 23.476635647294863,14.06915850183288 23.476635647294863,14.115887474628472 23.476635647294863,14.115887474628472 23.42990667449927,14.16261644742407 23.42990667449927,14.209345420219659 23.42990667449927,14.256074393015256 23.38317770170368,14.302803365810846 23.38317770170368,14.349532338606437 23.33644872890809,14.396261311402032 23.33644872890809,14.442990284197624 23.33644872890809,14.489719256993219 23.28971975611249,14.53644822978881 23.28971975611249,14.5831772025844 23.2429907833169,14.5831772025844 23.2429907833169,14.629906175379997 23.196261810521307,14.676635148175588 23.149532837725715,14.723364120971183 23.149532837725715,14.770093093766775 23.102803864930124,14.816822066562368 23.056074892134532,14.910280012153551 23.009345919338934,14.957008984949148 23.009345919338934,15.003737957744738 22.962616946543342,15.050466930540331 22.91588797374775,15.097195903335924 22.86915900095216,15.14392487613152 22.822430028156568,15.19065384892711 22.77570105536097,15.237382821722706 22.728972082565377,15.284111794518296 22.728972082565377,15.284111794518296 22.682243109769786,15.330840767313893 22.635514136974194,15.377569740109482 22.588785164178603,15.424298712905074 22.542056191383004,15.471027685700669 22.495327218587413,15.51775665849626 22.495327218587413,15.51775665849626 22.44859824579182,15.564485631291856 22.40186927299623,15.611214604087447 22.355140300200638,15.657943576883039 22.30841132740504,15.704672549678634 22.261682354609448,15.751401522474225 22.214953381813856,15.79813049526982 22.168224409018265,15.844859468065412 22.121495436222673,15.844859468065412 22.121495436222673,15.891588440861002 22.074766463427075,15.938317413656598 22.028037490631483,15.985046386452188 21.981308517835892,16.031775359247785 21.9345795450403,16.078504332043376 21.88785057224471,16.125233304838968 21.84112159944911,16.171962277634563 21.79439262665352,16.218691250430155 21.747663653857927,16.26542022322575 21.700934681062336,16.31214919602134 21.654205708266744,16.31214919602134 21.607476735471145,16.358878168816933 21.607476735471145,16.405607141612528 21.560747762675554,16.45233611440812 21.514018789879962,16.499065087203714 21.514018789879962,16.499065087203714 21.46728981708437,16.545794059999306 21.42056084428878,16.592523032794897 21.42056084428878,16.592523032794897 21.37383187149318,16.639252005590492 21.32710289869759,16.685980978386084 21.32710289869759,16.685980978386084 21.280373925901998,16.73270995118168 21.280373925901998,16.77943892397727 21.233644953106406,16.77943892397727 21.233644953106406,16.826167896772862 21.186915980310815,16.826167896772862 21.140187007515216,16.872896869568457 21.140187007515216,16.91962584236405 21.093458034719625,16.91962584236405 21.046729061924033,16.96635481515964 21.046729061924033,17.013083787955235 21.00000008912844,17.059812760750827 20.95327111633285,17.106541733546422 20.90654214353725,17.153270706342013 20.85981317074166,17.199999679137605 20.81308419794607,17.199999679137605 20.766355225150477,17.29345762472879 20.719626252354885,17.340186597524387 20.672897279559287,17.386915570319978 20.579439333968104,17.43364454311557 20.48598138837692,17.527102488706756 20.439252415581322,17.57383146150235 20.39252344278573,17.620560434297943 20.299065497194547,17.667289407093534 20.205607551603357,17.76074735268472 20.112149606012174,17.807476325480316 20.065420633216583,17.9009342710715 19.971962687625393,17.947663243867094 19.87850474203421,18.04112118945828 19.831775769238618,18.087850162253872 19.738317823647428,18.134579135049464 19.598130905260653,18.22803708064065 19.50467295966947,18.274766053436245 19.41121501407828,18.36822399902743 19.271028095691506,18.461681944618615 19.177570150100316,18.50841091741421 19.03738323171354,18.601868863005393 18.89719631332676,18.69532680859658 18.757009394939985,18.788784754187766 18.616822476553203,18.882242699778953 18.57009350375761,18.882242699778953 18.42990658537083,18.975700645370136 18.336448639779647,19.069158590961322 18.289719666984055,19.115887563756917 18.196261721392865,19.16261653655251 18.149532748597274,19.2093455093481 18.05607480300609,19.256074482143696 18.009345830210492,19.302803454939287 17.9626168574149,19.349532427734882 17.91588788461931,19.349532427734882 17.869158911823718,19.396261400530474 17.822429939028126,19.442990373326065 17.775700966232527,19.442990373326065 17.775700966232527,19.48971934612166 17.728971993436936,19.48971934612166 17.682243020641344,19.53644831891725 17.682243020641344,19.53644831891725 17.682243020641344,19.583177291712847 17.635514047845753,19.583177291712847 17.635514047845753,19.583177291712847 17.635514047845753,19.583177291712847 17.58878507505016,19.583177291712847 17.58878507505016,19.583177291712847 17.58878507505016,19.583177291712847 17.58878507505016,19.583177291712847 17.542056102254563,19.583177291712847 17.542056102254563,19.62990626450844 17.49532712945897,19.62990626450844 17.44859815666338,19.67663523730403 17.401869183867788,19.723364210099625 17.355140211072197,19.723364210099625 17.261682265481006,19.770093182895216 17.214953292685415,19.863551128486403 17.168224319889823,19.910280101281995 17.121495347094232,19.95700907407759 17.028037401503042,20.00373804687318 16.98130842870745,20.050467019668776 16.93457945591186,20.097195992464368 16.887850483116267,20.14392496525996 16.841121510320676,20.190653938055554 16.794392537525077,20.237382910851146 16.747663564729486,20.284111883646737 16.700934591933894,20.330840856442332 16.700934591933894,20.377569829237924 16.654205619138303,20.42429880203352 16.60747664634271,20.517756747624702 16.560747673547112,20.564485720420297 16.560747673547112,20.61121469321589 16.51401870075152,20.657943666011484 16.46728972795593,20.704672638807075 16.46728972795593,20.751401611602667 16.420560755160338,20.798130584398262 16.420560755160338,20.798130584398262 16.420560755160338,20.844859557193853 16.420560755160338,20.844859557193853 16.420560755160338,20.89158852998945 16.420560755160338,20.89158852998945 16.420560755160338,20.89158852998945 16.373831782364746,20.89158852998945 16.373831782364746,20.93831750278504 16.420560755160338,20.93831750278504 16.46728972795593,20.93831750278504 16.51401870075152,20.93831750278504 16.60747664634271,20.93831750278504 16.700934591933894,20.89158852998945 16.794392537525077,20.844859557193853 16.841121510320676,20.844859557193853 16.93457945591186,20.798130584398262 17.028037401503042,20.798130584398262 17.121495347094232,20.751401611602667 17.168224319889823,20.751401611602667 17.261682265481006,20.704672638807075 17.261682265481006,20.704672638807075 17.308411238276598,20.657943666011484 17.355140211072197,20.657943666011484 17.355140211072197,20.657943666011484 17.401869183867788,20.657943666011484 17.401869183867788,20.61121469321589 17.401869183867788,20.61121469321589 17.44859815666338,20.61121469321589 17.44859815666338,20.61121469321589 17.44859815666338,20.61121469321589 17.44859815666338,20.61121469321589 17.44859815666338,20.61121469321589 17.44859815666338,20.61121469321589 17.44859815666338,20.564485720420297 17.49532712945897,20.564485720420297 17.49532712945897,20.564485720420297 17.542056102254563,20.564485720420297 17.58878507505016,20.517756747624702 17.682243020641344,20.47102777482911 17.728971993436936,20.377569829237924 17.822429939028126,20.330840856442332 17.91588788461931,20.284111883646737 17.9626168574149,20.237382910851146 18.05607480300609,20.190653938055554 18.102803775801682,20.14392496525996 18.149532748597274,20.097195992464368 18.196261721392865,20.050467019668776 18.242990694188457,20.050467019668776 18.289719666984055,20.00373804687318 18.289719666984055,20.00373804687318 18.336448639779647,19.95700907407759 18.336448639779647,19.95700907407759 18.38317761257524,19.95700907407759 18.38317761257524,19.95700907407759 18.38317761257524,19.95700907407759 18.42990658537083,19.910280101281995 18.42990658537083,19.910280101281995 18.47663555816642,19.910280101281995 18.52336453096202,19.863551128486403 18.52336453096202,19.863551128486403 18.57009350375761,19.81682215569081 18.57009350375761,19.81682215569081 18.616822476553203,19.81682215569081 18.616822476553203,19.770093182895216 18.663551449348795,19.770093182895216 18.663551449348795,19.770093182895216 18.710280422144386,19.770093182895216 18.710280422144386,19.770093182895216 18.710280422144386,19.770093182895216 18.710280422144386,19.770093182895216 18.616822476553203,19.81682215569081 18.47663555816642,19.910280101281995 18.38317761257524,20.00373804687318 18.242990694188457,20.097195992464368 18.149532748597274,20.190653938055554 18.009345830210492,20.284111883646737 17.869158911823718,20.42429880203352 17.775700966232527,20.517756747624702 17.728971993436936,20.564485720420297 17.635514047845753,20.704672638807075 17.542056102254563,20.751401611602667 17.44859815666338,20.844859557193853 17.355140211072197,20.89158852998945 17.308411238276598,20.93831750278504 17.261682265481006,20.98504647558063 17.214953292685415,21.031775448376226 17.168224319889823,21.078504421171818 17.121495347094232,21.125233393967413 17.074766374298633,21.171962366763005 17.028037401503042,21.171962366763005 17.028037401503042,21.171962366763005 16.98130842870745,21.218691339558596 16.98130842870745,21.26542031235419 16.93457945591186,21.26542031235419 16.93457945591186,21.26542031235419 16.93457945591186,21.312149285149783 16.887850483116267,21.358878257945378 16.887850483116267,21.358878257945378 16.841121510320676,21.40560723074097 16.841121510320676,21.45233620353656 16.794392537525077,21.45233620353656 16.747663564729486,21.499065176332156 16.747663564729486,21.545794149127747 16.747663564729486,21.545794149127747 16.700934591933894,21.592523121923342 16.700934591933894,21.592523121923342 16.700934591933894,21.639252094718934 16.654205619138303,21.639252094718934 16.654205619138303,21.639252094718934 16.654205619138303,21.639252094718934 16.654205619138303,21.639252094718934 16.654205619138303,21.685981067514525 16.654205619138303,21.685981067514525 16.654205619138303,21.685981067514525 16.60747664634271,21.73271004031012 16.60747664634271,21.779439013105712 16.560747673547112,21.826167985901307 16.560747673547112,21.8728969586969 16.51401870075152,21.91962593149249 16.51401870075152,21.966354904288085 16.46728972795593,22.013083877083677 16.46728972795593,22.013083877083677 16.420560755160338,22.05981284987927 16.420560755160338,22.106541822674863 16.373831782364746,22.106541822674863 16.373831782364746,22.106541822674863 16.373831782364746,22.153270795470455 16.373831782364746,22.153270795470455 16.373831782364746,22.19999976826605 16.373831782364746,22.19999976826605 16.327102809569148,22.19999976826605 16.327102809569148,22.19999976826605 16.327102809569148,22.24672874106164 16.280373836773556,22.24672874106164 16.280373836773556,22.293457713857233 16.280373836773556,22.293457713857233 16.233644863977965,22.340186686652828 16.233644863977965,22.340186686652828 16.233644863977965,22.340186686652828 16.233644863977965,22.38691565944842 16.233644863977965,22.38691565944842 16.186915891182373,22.38691565944842 16.186915891182373,22.38691565944842 16.186915891182373,22.433644632244015 16.186915891182373,22.433644632244015 16.186915891182373,22.433644632244015 16.186915891182373,22.433644632244015 16.14018691838678,22.433644632244015 16.14018691838678,22.480373605039606 16.14018691838678,22.480373605039606 16.14018691838678,22.480373605039606 16.093457945591183,22.480373605039606 16.093457945591183,22.480373605039606 16.093457945591183,22.480373605039606 16.093457945591183,22.480373605039606 16.093457945591183,22.480373605039606 16.04672897279559,22.480373605039606 16.04672897279559,22.480373605039606 15.999999999999998,22.433644632244015 15.953271027204407,22.38691565944842 15.906542054408815,22.340186686652828 15.85981308161322,22.293457713857233 15.85981308161322,22.293457713857233 15.85981308161322,22.24672874106164 15.85981308161322,22.24672874106164 15.813084108817629,22.19999976826605 15.813084108817629,22.19999976826605 15.813084108817629,22.19999976826605 15.766355136022034,22.153270795470455 15.766355136022034,22.106541822674863 15.719626163226442,22.106541822674863 15.719626163226442,22.05981284987927 15.719626163226442,22.05981284987927 15.672897190430852,22.013083877083677 15.672897190430852,22.013083877083677 15.672897190430852,22.013083877083677 15.672897190430852,22.013083877083677 15.626168217635255,22.013083877083677 15.626168217635255,21.966354904288085 15.626168217635255,21.966354904288085 15.579439244839666,21.91962593149249 15.579439244839666,21.91962593149249 15.579439244839666,21.8728969586969 15.532710272044069,21.8728969586969 15.485981299248477,21.826167985901307 15.485981299248477,21.826167985901307 15.485981299248477,21.826167985901307 15.439252326452884,21.779439013105712 15.439252326452884,21.779439013105712 15.39252335365729,21.73271004031012 15.39252335365729,21.73271004031012 15.345794380861697,21.685981067514525 15.299065408066108,21.685981067514525 15.252336435270514,21.639252094718934 15.205607462474921,21.592523121923342 15.158878489679328,21.545794149127747 15.112149516883735,21.499065176332156 15.018691571292546,21.45233620353656 14.971962598496956,21.40560723074097 14.92523362570136,21.358878257945378 14.87850465290577,21.312149285149783 14.831775680110178,21.26542031235419 14.785046707314583,21.26542031235419 14.738317734518992,21.218691339558596 14.691588761723397,21.218691339558596 14.691588761723397,21.171962366763005 14.644859788927805,21.171962366763005 14.598130816132215,21.125233393967413 14.598130816132215,21.125233393967413 14.551401843336619,21.078504421171818 14.504672870541027,21.078504421171818 14.457943897745432,21.031775448376226 14.457943897745432,21.031775448376226 14.41121492494984,20.98504647558063 14.364485952154247,20.93831750278504 14.364485952154247,20.93831750278504 14.317756979358654,20.89158852998945 14.271028006563064,20.844859557193853 14.224299033767467,20.798130584398262 14.224299033767467,20.751401611602667 14.177570060971878,20.704672638807075 14.08411211538069,20.657943666011484 14.08411211538069,20.61121469321589 14.037383142585096,20.564485720420297 13.990654169789503,20.517756747624702 13.94392519699391,20.42429880203352 13.89719622419832,20.377569829237924 13.850467251402726,20.284111883646737 13.803738278607133,20.237382910851146 13.75700930581154,20.14392496525996 13.663551360220355,20.097195992464368 13.616822387424758,20.00373804687318 13.570093414629168,19.95700907407759 13.523364441833577,19.863551128486403 13.476635469037982,19.81682215569081 13.42990649624239,19.770093182895216 13.383177523446795,19.67663523730403 13.383177523446795,19.62990626450844 13.336448550651204,19.583177291712847 13.242990605060017,19.48971934612166 13.242990605060017,19.48971934612166 13.196261632264427,19.396261400530474 13.14953265946883,19.349532427734882 13.102803686673239,19.302803454939287 13.056074713877646,19.256074482143696 13.056074713877646,19.2093455093481 13.009345741082052,19.16261653655251 12.962616768286459,19.115887563756917 12.962616768286459,19.069158590961322 12.915887795490866,19.02242961816573 12.915887795490866,18.975700645370136 12.869158822695276,18.928971672574544 12.822429849899683,18.882242699778953 12.77570087710409,18.835513726983358 12.77570087710409,18.835513726983358 12.728971904308496,18.788784754187766 12.728971904308496,18.74205578139217 12.635513958717308,18.648597835800988 12.635513958717308,18.601868863005393 12.588784985921718,18.5551398902098 12.542056013126121,18.50841091741421 12.495327040330531,18.461681944618615 12.448598067534935,18.414952971823023 12.401869094739345,18.321495026231837 12.355140121943753,18.274766053436245 12.308411149148158,18.22803708064065 12.214953203556972,18.18130810784506 12.16822423076138,18.134579135049464 12.121495257965789,18.087850162253872 12.074766285170194,18.04112118945828 12.028037312374602,17.947663243867094 11.981308339579007,17.9009342710715 11.887850393987824,17.854205298275907 11.841121421192229,17.807476325480316 11.794392448396637,17.76074735268472 11.747663475601046,17.71401837988913 11.70093450280545,17.620560434297943 11.65420553000986,17.57383146150235 11.560747584418673,17.527102488706756 11.514018611623081,17.43364454311557 11.467289638827486,17.386915570319978 11.420560666031895,17.340186597524387 11.3738316932363,17.29345762472879 11.3738316932363,17.2467286519332 11.327102720440708,17.199999679137605 11.280373747645116,17.153270706342013 11.233644774849521,17.106541733546422 11.18691580205393,17.106541733546422 11.18691580205393,17.059812760750827 11.140186829258335,17.013083787955235 11.093457856462743,17.013083787955235 11.093457856462743,16.96635481515964 11.046728883667152,16.91962584236405 10.999999910871557,16.91962584236405 10.999999910871557,16.872896869568457 10.953270938075965,16.826167896772862 10.90654196528037,16.826167896772862 10.90654196528037,16.77943892397727 10.859812992484779,16.77943892397727 10.859812992484779,16.73270995118168 10.813084019689187,16.685980978386084 10.766355046893592,16.685980978386084 10.766355046893592,16.685980978386084 10.766355046893592,16.639252005590492 10.719626074098,16.639252005590492 10.719626074098,16.592523032794897 10.672897101302405,16.592523032794897 10.672897101302405,16.592523032794897 10.626168128506814,16.545794059999306 10.626168128506814,16.545794059999306 10.579439155711222,16.499065087203714 10.579439155711222,16.499065087203714 10.532710182915627,16.499065087203714 10.532710182915627,16.45233611440812 10.485981210120036,16.45233611440812 10.43925223732444,16.45233611440812 10.43925223732444,16.405607141612528 10.39252326452885,16.405607141612528 10.345794291733258,16.405607141612528 10.345794291733258,16.358878168816933 10.299065318937663,16.358878168816933 10.299065318937663,16.31214919602134 10.252336346142071,16.31214919602134 10.252336346142071,16.31214919602134 10.20560737334648,16.31214919602134 10.20560737334648,16.26542022322575 10.158878400550885,16.26542022322575 10.158878400550885,16.26542022322575 10.112149427755293,16.218691250430155 10.112149427755293,16.218691250430155 10.065420454959698,16.218691250430155 10.065420454959698,16.218691250430155 10.018691482164106,16.171962277634563 10.018691482164106,16.171962277634563 9.971962509368515,16.171962277634563 9.971962509368515,16.171962277634563 9.971962509368515,16.171962277634563 9.92523353657292,16.125233304838968 9.878504563777328,16.125233304838968 9.878504563777328,16.125233304838968 9.878504563777328,16.078504332043376 9.831775590981733,16.078504332043376 9.785046618186142,16.078504332043376 9.785046618186142,16.078504332043376 9.785046618186142,16.078504332043376 9.73831764539055,16.031775359247785 9.691588672594955,16.031775359247785 9.691588672594955,16.031775359247785 9.644859699799364,15.985046386452188 9.644859699799364,15.985046386452188 9.598130727003769,15.985046386452188 9.598130727003769,15.985046386452188 9.598130727003769,15.938317413656598 9.551401754208177,15.938317413656598 9.551401754208177,15.891588440861002 9.504672781412586,15.891588440861002 9.504672781412586,15.891588440861002 9.45794380861699,15.891588440861002 9.45794380861699,15.844859468065412 9.411214835821399,15.844859468065412 9.411214835821399,15.844859468065412 9.364485863025804,15.79813049526982 9.364485863025804,15.79813049526982 9.317756890230212,15.79813049526982 9.317756890230212,15.751401522474225 9.27102791743462,15.751401522474225 9.27102791743462,15.751401522474225 9.27102791743462,15.704672549678634 9.224298944639026,15.704672549678634 9.224298944639026,15.657943576883039 9.177569971843434,15.657943576883039 9.177569971843434,15.657943576883039 9.13084099904784,15.611214604087447 9.13084099904784,15.611214604087447 9.13084099904784,15.611214604087447 9.084112026252248,15.564485631291856 9.084112026252248,15.564485631291856 9.037383053456656,15.51775665849626 9.037383053456656,15.51775665849626 9.037383053456656,15.51775665849626 8.990654080661061,15.471027685700669 8.990654080661061,15.471027685700669 8.990654080661061,15.424298712905074 8.94392510786547,15.424298712905074 8.94392510786547,15.424298712905074 8.897196135069875,15.377569740109482 8.897196135069875,15.377569740109482 8.897196135069875,15.377569740109482 8.897196135069875,15.330840767313893 8.850467162274283,15.284111794518296 8.850467162274283,15.284111794518296 8.850467162274283,15.284111794518296 8.803738189478691,15.237382821722706 8.803738189478691,15.237382821722706 8.803738189478691,15.237382821722706 8.803738189478691,15.19065384892711 8.757009216683096,15.19065384892711 8.757009216683096,15.14392487613152 8.757009216683096,15.14392487613152 8.757009216683096,15.14392487613152 8.710280243887505,15.097195903335924 8.710280243887505,15.097195903335924 8.710280243887505,15.050466930540331 8.710280243887505,15.050466930540331 8.66355127109191,15.003737957744738 8.66355127109191,15.003737957744738 8.66355127109191,15.003737957744738 8.616822298296318,14.957008984949148 8.616822298296318,14.957008984949148 8.616822298296318,14.910280012153551 8.616822298296318,14.910280012153551 8.616822298296318,14.910280012153551 8.616822298296318,14.863551039357962 8.570093325500727,14.863551039357962 8.570093325500727,14.863551039357962 8.570093325500727,14.816822066562368 8.570093325500727,14.816822066562368 8.570093325500727,14.770093093766775 8.570093325500727,14.770093093766775 8.523364352705132,14.770093093766775 8.523364352705132,14.723364120971183 8.523364352705132,14.723364120971183 8.523364352705132,14.723364120971183 8.523364352705132,14.723364120971183 8.523364352705132,14.723364120971183 8.523364352705132,14.676635148175588 " style="color: rgb(87, 46, 229);"/></g></svg>